{
  "asset": {
    "version": "2.0",
    "generator": "THREE.GLTFExporter r169"
  },
  "scenes": [
    {
      "name": "Scene",
      "nodes": [
        9,
        10
      ]
    }
  ],
  "scene": 0,
  "nodes": [
    {
      "name": "Building",
      "extras": {
        "name": "Building"
      },
      "mesh": 0
    },
    {
      "name": "Building_1",
      "extras": {
        "name": "Building_1"
      },
      "mesh": 1
    },
    {
      "name": "Building_2",
      "extras": {
        "name": "Building_2"
      },
      "mesh": 2
    },
    {
      "name": "Building_3",
      "extras": {
        "name": "Building_3"
      },
      "mesh": 3
    },
    {
      "name": "Building_4",
      "extras": {
        "name": "Building_4"
      },
      "mesh": 4
    },
    {
      "name": "Building_5",
      "extras": {
        "name": "Building_5"
      },
      "mesh": 5
    },
    {
      "name": "Building_6",
      "extras": {
        "name": "Building_6"
      },
      "mesh": 6
    },
    {
      "children": [
        0,
        1,
        2,
        3,
        4,
        5,
        6
      ]
    },
    {
      "matrix": [
        1,
        0,
        0,
        0,
        0,
        1,
        0,
        0,
        0,
        0,
        1,
        0,
        0,
        0.4990610046141697,
        0,
        1
      ],
      "name": "9dc7cbd46225093b0a8adb7cd2ddcee9gltf",
      "extras": {
        "name": "9dc7cbd46225093b0a8adb7cd2ddcee9.gltf"
      },
      "children": [
        7
      ]
    },
    {
      "name": "01scene.glb",
      "children": [
        8
      ]
    },
    {
      "matrix": [
        1,
        0,
        0,
        0,
        0,
        1,
        0,
        0,
        0,
        0,
        1,
        0,
        5,
        60.888098594480304,
        49.718344210413136,
        1
      ],
      "name": "DirectionalLight",
      "extensions": {
        "KHR_lights_punctual": {
          "light": 0
        }
      }
    }
  ],
  "bufferViews": [
    {
      "buffer": 0,
      "byteOffset": 0,
      "byteLength": 6192,
      "target": 34962,
      "byteStride": 12
    },
    {
      "buffer": 0,
      "byteOffset": 6192,
      "byteLength": 4128,
      "target": 34962,
      "byteStride": 8
    },
    {
      "buffer": 0,
      "byteOffset": 10320,
      "byteLength": 8256,
      "target": 34962,
      "byteStride": 16
    },
    {
      "buffer": 0,
      "byteOffset": 18576,
      "byteLength": 4128,
      "target": 34962,
      "byteStride": 8
    },
    {
      "buffer": 0,
      "byteOffset": 22704,
      "byteLength": 6192,
      "target": 34962,
      "byteStride": 12
    },
    {
      "buffer": 0,
      "byteOffset": 28896,
      "byteLength": 7848,
      "target": 34963
    },
    {
      "buffer": 0,
      "byteOffset": 36744,
      "byteLength": 31008,
      "target": 34962,
      "byteStride": 12
    },
    {
      "buffer": 0,
      "byteOffset": 67752,
      "byteLength": 20672,
      "target": 34962,
      "byteStride": 8
    },
    {
      "buffer": 0,
      "byteOffset": 88424,
      "byteLength": 41344,
      "target": 34962,
      "byteStride": 16
    },
    {
      "buffer": 0,
      "byteOffset": 129768,
      "byteLength": 20672,
      "target": 34962,
      "byteStride": 8
    },
    {
      "buffer": 0,
      "byteOffset": 150440,
      "byteLength": 31008,
      "target": 34962,
      "byteStride": 12
    },
    {
      "buffer": 0,
      "byteOffset": 181448,
      "byteLength": 21456,
      "target": 34963
    },
    {
      "buffer": 0,
      "byteOffset": 202904,
      "byteLength": 25056,
      "target": 34962,
      "byteStride": 12
    },
    {
      "buffer": 0,
      "byteOffset": 227960,
      "byteLength": 16704,
      "target": 34962,
      "byteStride": 8
    },
    {
      "buffer": 0,
      "byteOffset": 244664,
      "byteLength": 33408,
      "target": 34962,
      "byteStride": 16
    },
    {
      "buffer": 0,
      "byteOffset": 278072,
      "byteLength": 16704,
      "target": 34962,
      "byteStride": 8
    },
    {
      "buffer": 0,
      "byteOffset": 294776,
      "byteLength": 25056,
      "target": 34962,
      "byteStride": 12
    },
    {
      "buffer": 0,
      "byteOffset": 319832,
      "byteLength": 16920,
      "target": 34963
    },
    {
      "buffer": 0,
      "byteOffset": 336752,
      "byteLength": 25056,
      "target": 34962,
      "byteStride": 12
    },
    {
      "buffer": 0,
      "byteOffset": 361808,
      "byteLength": 25056,
      "target": 34962,
      "byteStride": 12
    },
    {
      "buffer": 0,
      "byteOffset": 386864,
      "byteLength": 16704,
      "target": 34962,
      "byteStride": 8
    },
    {
      "buffer": 0,
      "byteOffset": 403568,
      "byteLength": 33408,
      "target": 34962,
      "byteStride": 16
    },
    {
      "buffer": 0,
      "byteOffset": 436976,
      "byteLength": 16704,
      "target": 34962,
      "byteStride": 8
    },
    {
      "buffer": 0,
      "byteOffset": 453680,
      "byteLength": 16920,
      "target": 34963
    },
    {
      "buffer": 0,
      "byteOffset": 470600,
      "byteLength": 31008,
      "target": 34962,
      "byteStride": 12
    },
    {
      "buffer": 0,
      "byteOffset": 501608,
      "byteLength": 31008,
      "target": 34962,
      "byteStride": 12
    },
    {
      "buffer": 0,
      "byteOffset": 532616,
      "byteLength": 20672,
      "target": 34962,
      "byteStride": 8
    },
    {
      "buffer": 0,
      "byteOffset": 553288,
      "byteLength": 41344,
      "target": 34962,
      "byteStride": 16
    },
    {
      "buffer": 0,
      "byteOffset": 594632,
      "byteLength": 20672,
      "target": 34962,
      "byteStride": 8
    },
    {
      "buffer": 0,
      "byteOffset": 615304,
      "byteLength": 21456,
      "target": 34963
    },
    {
      "buffer": 0,
      "byteOffset": 636760,
      "byteLength": 29376,
      "target": 34962,
      "byteStride": 12
    },
    {
      "buffer": 0,
      "byteOffset": 666136,
      "byteLength": 19584,
      "target": 34962,
      "byteStride": 8
    },
    {
      "buffer": 0,
      "byteOffset": 685720,
      "byteLength": 39168,
      "target": 34962,
      "byteStride": 16
    },
    {
      "buffer": 0,
      "byteOffset": 724888,
      "byteLength": 19584,
      "target": 34962,
      "byteStride": 8
    },
    {
      "buffer": 0,
      "byteOffset": 744472,
      "byteLength": 29376,
      "target": 34962,
      "byteStride": 12
    },
    {
      "buffer": 0,
      "byteOffset": 773848,
      "byteLength": 23328,
      "target": 34963
    },
    {
      "buffer": 0,
      "byteOffset": 797176,
      "byteLength": 1200,
      "target": 34962,
      "byteStride": 12
    },
    {
      "buffer": 0,
      "byteOffset": 798376,
      "byteLength": 800,
      "target": 34962,
      "byteStride": 8
    },
    {
      "buffer": 0,
      "byteOffset": 799176,
      "byteLength": 1600,
      "target": 34962,
      "byteStride": 16
    },
    {
      "buffer": 0,
      "byteOffset": 800776,
      "byteLength": 800,
      "target": 34962,
      "byteStride": 8
    },
    {
      "buffer": 0,
      "byteOffset": 801576,
      "byteLength": 1200,
      "target": 34962,
      "byteStride": 12
    },
    {
      "buffer": 0,
      "byteOffset": 802776,
      "byteLength": 696,
      "target": 34963
    }
  ],
  "buffers": [
    {
      "byteLength": 803472,
      "uri": "data:application/octet-stream;base64,"
    }
  ],
  "accessors": [
    {
      "bufferView": 0,
      "componentType": 5126,
      "count": 516,
      "max": [
        9.74618911743164,
        40.49500274658203,
        6.819401741027832
      ],
      "min": [
        -9.797138214111328,
        -40.50499725341797,
        -6.841894149780273
      ],
      "type": "VEC3"
    },
    {
      "bufferView": 1,
      "componentType": 5126,
      "count": 516,
      "max": [
        0,
        0
      ],
      "min": [
        0,
        0
      ],
      "type": "VEC2"
    },
    {
      "bufferView": 2,
      "componentType": 5126,
      "count": 516,
      "max": [
        1,
        1,
        0,
        1
      ],
      "min": [
        0,
        0,
        0,
        1
      ],
      "type": "VEC4"
    },
    {
      "bufferView": 3,
      "componentType": 5126,
      "count": 516,
      "max": [
        0.5,
        0.018035888671875
      ],
      "min": [
        0.5,
        0.018035888671875
      ],
      "type": "VEC2"
    },
    {
      "bufferView": 4,
      "componentType": 5126,
      "count": 516,
      "max": [
        0.007889270782470703,
        1,
        0.9999688863754272
      ],
      "min": [
        -0.007889330387115479,
        0,
        -0.9999688267707825
      ],
      "type": "VEC3"
    },
    {
      "bufferView": 5,
      "componentType": 5125,
      "count": 1962,
      "max": [
        515
      ],
      "min": [
        0
      ],
      "type": "SCALAR"
    },
    {
      "bufferView": 6,
      "componentType": 5126,
      "count": 2584,
      "max": [
        -9.745772361755371,
        40.49500274658203,
        6.780022144317627
      ],
      "min": [
        -19.430917739868164,
        -40.50499725341797,
        -6.757675647735596
      ],
      "type": "VEC3"
    },
    {
      "bufferView": 7,
      "componentType": 5126,
      "count": 2584,
      "max": [
        0,
        0
      ],
      "min": [
        0,
        0
      ],
      "type": "VEC2"
    },
    {
      "bufferView": 8,
      "componentType": 5126,
      "count": 2584,
      "max": [
        1,
        1,
        0,
        1
      ],
      "min": [
        0,
        0,
        0,
        1
      ],
      "type": "VEC4"
    },
    {
      "bufferView": 9,
      "componentType": 5126,
      "count": 2584,
      "max": [
        0.5,
        0.93115234375
      ],
      "min": [
        0.5,
        0.018035888671875
      ],
      "type": "VEC2"
    },
    {
      "bufferView": 10,
      "componentType": 5126,
      "count": 2584,
      "max": [
        0,
        1,
        1
      ],
      "min": [
        -1,
        0,
        -1
      ],
      "type": "VEC3"
    },
    {
      "bufferView": 11,
      "componentType": 5125,
      "count": 5364,
      "max": [
        2583
      ],
      "min": [
        0
      ],
      "type": "SCALAR"
    },
    {
      "bufferView": 12,
      "componentType": 5126,
      "count": 2088,
      "max": [
        -0.033560752868652344,
        40.49500274658203,
        6.742641925811768
      ],
      "min": [
        -9.747133255004883,
        -40.50499725341797,
        -6.782695293426514
      ],
      "type": "VEC3"
    },
    {
      "bufferView": 13,
      "componentType": 5126,
      "count": 2088,
      "max": [
        0,
        0
      ],
      "min": [
        0,
        0
      ],
      "type": "VEC2"
    },
    {
      "bufferView": 14,
      "componentType": 5126,
      "count": 2088,
      "max": [
        1,
        1,
        0,
        1
      ],
      "min": [
        0,
        0,
        0,
        1
      ],
      "type": "VEC4"
    },
    {
      "bufferView": 15,
      "componentType": 5126,
      "count": 2088,
      "max": [
        0.5,
        0.93115234375
      ],
      "min": [
        0.5,
        0.018035888671875
      ],
      "type": "VEC2"
    },
    {
      "bufferView": 16,
      "componentType": 5126,
      "count": 2088,
      "max": [
        1,
        1,
        1
      ],
      "min": [
        0,
        0,
        -1
      ],
      "type": "VEC3"
    },
    {
      "bufferView": 17,
      "componentType": 5125,
      "count": 4230,
      "max": [
        2087
      ],
      "min": [
        0
      ],
      "type": "SCALAR"
    },
    {
      "bufferView": 18,
      "componentType": 5126,
      "count": 2088,
      "max": [
        9.696196556091309,
        40.49500274658203,
        6.84555196762085
      ],
      "min": [
        -0.017375487834215164,
        -40.50499725341797,
        -6.841699123382568
      ],
      "type": "VEC3"
    },
    {
      "bufferView": 19,
      "componentType": 5126,
      "count": 2088,
      "max": [
        0,
        1,
        1
      ],
      "min": [
        -1,
        0,
        -1
      ],
      "type": "VEC3"
    },
    {
      "bufferView": 20,
      "componentType": 5126,
      "count": 2088,
      "max": [
        0,
        0
      ],
      "min": [
        0,
        0
      ],
      "type": "VEC2"
    },
    {
      "bufferView": 21,
      "componentType": 5126,
      "count": 2088,
      "max": [
        1,
        1,
        0,
        1
      ],
      "min": [
        0,
        0,
        0,
        1
      ],
      "type": "VEC4"
    },
    {
      "bufferView": 22,
      "componentType": 5126,
      "count": 2088,
      "max": [
        0.5,
        0.93115234375
      ],
      "min": [
        0.5,
        0.018035888671875
      ],
      "type": "VEC2"
    },
    {
      "bufferView": 23,
      "componentType": 5125,
      "count": 4230,
      "max": [
        2087
      ],
      "min": [
        0
      ],
      "type": "SCALAR"
    },
    {
      "bufferView": 24,
      "componentType": 5126,
      "count": 2584,
      "max": [
        19.430513381958008,
        40.49500274658203,
        6.819339752197266
      ],
      "min": [
        9.693456649780273,
        -40.50499725341797,
        -6.845664024353027
      ],
      "type": "VEC3"
    },
    {
      "bufferView": 25,
      "componentType": 5126,
      "count": 2584,
      "max": [
        1,
        1,
        1
      ],
      "min": [
        0,
        0,
        -1
      ],
      "type": "VEC3"
    },
    {
      "bufferView": 26,
      "componentType": 5126,
      "count": 2584,
      "max": [
        0,
        0
      ],
      "min": [
        0,
        0
      ],
      "type": "VEC2"
    },
    {
      "bufferView": 27,
      "componentType": 5126,
      "count": 2584,
      "max": [
        1,
        1,
        0,
        1
      ],
      "min": [
        0,
        0,
        0,
        1
      ],
      "type": "VEC4"
    },
    {
      "bufferView": 28,
      "componentType": 5126,
      "count": 2584,
      "max": [
        0.5,
        0.93115234375
      ],
      "min": [
        0.5,
        0.018035888671875
      ],
      "type": "VEC2"
    },
    {
      "bufferView": 29,
      "componentType": 5125,
      "count": 5364,
      "max": [
        2583
      ],
      "min": [
        0
      ],
      "type": "SCALAR"
    },
    {
      "bufferView": 30,
      "componentType": 5126,
      "count": 2448,
      "max": [
        9.74618911743164,
        40.49500274658203,
        6.819401741027832
      ],
      "min": [
        -9.797138214111328,
        -40.50499725341797,
        -6.841894149780273
      ],
      "type": "VEC3"
    },
    {
      "bufferView": 31,
      "componentType": 5126,
      "count": 2448,
      "max": [
        0,
        0
      ],
      "min": [
        0,
        0
      ],
      "type": "VEC2"
    },
    {
      "bufferView": 32,
      "componentType": 5126,
      "count": 2448,
      "max": [
        0,
        1,
        0,
        1
      ],
      "min": [
        0,
        1,
        0,
        1
      ],
      "type": "VEC4"
    },
    {
      "bufferView": 33,
      "componentType": 5126,
      "count": 2448,
      "max": [
        0.5,
        0.93115234375
      ],
      "min": [
        0.5,
        0.018035888671875
      ],
      "type": "VEC2"
    },
    {
      "bufferView": 34,
      "componentType": 5126,
      "count": 2448,
      "max": [
        0.007889270782470703,
        0,
        0.9999688863754272
      ],
      "min": [
        -0.007889330387115479,
        0,
        -0.9999688267707825
      ],
      "type": "VEC3"
    },
    {
      "bufferView": 35,
      "componentType": 5125,
      "count": 5832,
      "max": [
        2447
      ],
      "min": [
        0
      ],
      "type": "SCALAR"
    },
    {
      "bufferView": 36,
      "componentType": 5126,
      "count": 100,
      "max": [
        19.43092155456543,
        40.50508117675781,
        6.845966339111328
      ],
      "min": [
        -19.430917739868164,
        40.494998931884766,
        -6.845664024353027
      ],
      "type": "VEC3"
    },
    {
      "bufferView": 37,
      "componentType": 5126,
      "count": 100,
      "max": [
        0,
        0
      ],
      "min": [
        0,
        0
      ],
      "type": "VEC2"
    },
    {
      "bufferView": 38,
      "componentType": 5126,
      "count": 100,
      "max": [
        1,
        1,
        0,
        1
      ],
      "min": [
        0,
        0,
        0,
        1
      ],
      "type": "VEC4"
    },
    {
      "bufferView": 39,
      "componentType": 5126,
      "count": 100,
      "max": [
        0.5,
        0.93115234375
      ],
      "min": [
        0.5,
        0.018035888671875
      ],
      "type": "VEC2"
    },
    {
      "bufferView": 40,
      "componentType": 5126,
      "count": 100,
      "max": [
        1,
        1,
        1
      ],
      "min": [
        -1,
        0,
        -1
      ],
      "type": "VEC3"
    },
    {
      "bufferView": 41,
      "componentType": 5125,
      "count": 174,
      "max": [
        99
      ],
      "min": [
        0
      ],
      "type": "SCALAR"
    }
  ],
  "materials": [
    {
      "pbrMetallicRoughness": {
        "metallicFactor": 0,
        "roughnessFactor": 0.5,
        "baseColorTexture": {
          "index": 0,
          "texCoord": 0
        }
      },
      "name": "M_SplitLine"
    }
  ],
  "textures": [
    {
      "sampler": 0,
      "source": 0,
      "name": "https://wos.anjukestatic.com/quoNmLkJqys/simulatedsunshine/20240131202348656_2306.png"
    }
  ],
  "samplers": [
    {
      "magFilter": 9729,
      "minFilter": 9987,
      "wrapS": 10497,
      "wrapT": 10497
    }
  ],
  "images": [
    {
      "mimeType": "image/png",
      "uri": "data:image/png;base64,"
    }
  ],
  "meshes": [
    {
      "primitives": [
        {
          "mode": 4,
          "attributes": {
            "POSITION": 0,
            "TEXCOORD_1": 1,
            "TANGENT": 2,
            "TEXCOORD_0": 3,
            "NORMAL": 4
          },
          "extras": {
            "type": "splitLine"
          },
          "indices": 5,
          "material": 0
        }
      ]
    },
    {
      "primitives": [
        {
          "mode": 4,
          "attributes": {
            "POSITION": 6,
            "TEXCOORD_1": 7,
            "TANGENT": 8,
            "TEXCOORD_0": 9,
            "NORMAL": 10
          },
          "extras": {
            "type": "building",
            "order": 0
          },
          "indices": 11,
          "material": 0
        }
      ]
    },
    {
      "primitives": [
        {
          "mode": 4,
          "attributes": {
            "POSITION": 12,
            "TEXCOORD_1": 13,
            "TANGENT": 14,
            "TEXCOORD_0": 15,
            "NORMAL": 16
          },
          "extras": {
            "type": "building",
            "order": 1
          },
          "indices": 17,
          "material": 0
        }
      ]
    },
    {
      "primitives": [
        {
          "mode": 4,
          "attributes": {
            "POSITION": 18,
            "NORMAL": 19,
            "TEXCOORD_1": 20,
            "TANGENT": 21,
            "TEXCOORD_0": 22
          },
          "extras": {
            "type": "building",
            "order": 2
          },
          "indices": 23,
          "material": 0
        }
      ]
    },
    {
      "primitives": [
        {
          "mode": 4,
          "attributes": {
            "POSITION": 24,
            "NORMAL": 25,
            "TEXCOORD_1": 26,
            "TANGENT": 27,
            "TEXCOORD_0": 28
          },
          "extras": {
            "type": "building",
            "order": 3
          },
          "indices": 29,
          "material": 0
        }
      ]
    },
    {
      "primitives": [
        {
          "mode": 4,
          "attributes": {
            "POSITION": 30,
            "TEXCOORD_1": 31,
            "TANGENT": 32,
            "TEXCOORD_0": 33,
            "NORMAL": 34
          },
          "extras": {
            "type": "splitWall"
          },
          "indices": 35,
          "material": 0
        }
      ]
    },
    {
      "primitives": [
        {
          "mode": 4,
          "attributes": {
            "POSITION": 36,
            "TEXCOORD_1": 37,
            "TANGENT": 38,
            "TEXCOORD_0": 39,
            "NORMAL": 40
          },
          "extras": {
            "type": "roof"
          },
          "indices": 41,
          "material": 0
        }
      ]
    }
  ],
  "extensions": {
    "KHR_lights_punctual": {
      "lights": [
        {
          "name": "DirectionalLight",
          "color": [
            1,
            1,
            1
          ],
          "intensity": 1,
          "type": "directional"
        }
      ]
    }
  },
  "extensionsUsed": [
    "KHR_lights_punctual"
  ]
}